<?xml version="1.0" encoding="UTF-8"?>
<svg xmlns="http://www.w3.org/2000/svg" version="1.1" width="2001px" height="391px"
    style="shape-rendering:geometricPrecision; text-rendering:geometricPrecision; image-rendering:optimizeQuality; fill-rule:evenodd; clip-rule:evenodd">
<g><path style="opacity:0.989" fill="#399ffd" d="M 922.5,-0.5 C 932.5,-0.5 942.5,-0.5 952.5,-0.5C 958.196,0.30333 963.863,1.30333 969.5,2.5C 969.5,29.1667 969.5,55.8333 969.5,82.5C 953.828,77.779 937.828,76.4457 921.5,78.5C 921.5,52.5 921.5,26.5 921.5,0.5C 922.167,0.5 922.5,0.166667 922.5,-0.5 Z"/></g>
<g><path style="opacity:0.99" fill="#22d1f7" d="M 1364.5,-0.5 C 1372.17,-0.5 1379.83,-0.5 1387.5,-0.5C 1387.5,25.5 1387.5,51.5 1387.5,77.5C 1370.24,76.7488 1353.58,79.4155 1337.5,85.5C 1337.5,58.5 1337.5,31.5 1337.5,4.5C 1346.39,2.1827 1355.39,0.516033 1364.5,-0.5 Z"/></g>
<g><path style="opacity:0.989" fill="#20d6f7" d="M 1387.5,-0.5 C 1389.83,-0.5 1392.17,-0.5 1394.5,-0.5C 1400.2,0.30333 1405.86,1.30333 1411.5,2.5C 1411.5,28.8333 1411.5,55.1667 1411.5,81.5C 1403.53,79.9492 1395.53,78.6159 1387.5,77.5C 1387.5,51.5 1387.5,25.5 1387.5,-0.5 Z"/></g>
<g><path style="opacity:0.988" fill="#3c98fe" d="M 921.5,0.5 C 921.5,26.5 921.5,52.5 921.5,78.5C 899.977,81.9326 880.643,90.266 863.5,103.5C 863.5,73.5 863.5,43.5 863.5,13.5C 882.114,6.01353 901.447,1.6802 921.5,0.5 Z"/></g>
<g><path style="opacity:0.988" fill="#2d3033" d="M -0.5,237.5 C -0.5,169.5 -0.5,101.5 -0.5,33.5C 2.95477,17.2289 12.9548,7.39561 29.5,4C 48.8814,0.776398 64.0481,7.2764 75,23.5C 133.76,96.6831 192.76,169.683 252,242.5C 252.5,162.167 252.667,81.834 252.5,1.5C 277.167,1.5 301.833,1.5 326.5,1.5C 326.514,118.836 326.681,236.169 327,353.5C 324.068,370.433 314.234,380.933 297.5,385C 283.79,387.654 271.456,384.82 260.5,376.5C 198.189,300.355 135.689,224.355 73,148.5C 73.2665,228.164 73.4331,307.83 73.5,387.5C 49.1667,387.5 24.8333,387.5 0.5,387.5C 0.832205,337.331 0.498872,287.331 -0.5,237.5 Z"/></g>
<g><path style="opacity:0.988" fill="#2d3033" d="M 547.5,1.5 C 563.257,-0.248953 577.924,2.91771 591.5,11C 612.278,26.692 627.111,46.8586 636,71.5C 676.371,176.404 716.871,281.237 757.5,386C 729.261,386.828 701.095,386.661 673,385.5C 634.863,286.755 596.529,188.088 558,89.5C 554.761,94.8757 552.095,100.542 550,106.5C 514.392,199.83 478.892,293.163 443.5,386.5C 415.5,386.5 387.5,386.5 359.5,386.5C 400.029,279.418 440.862,172.418 482,65.5C 489.761,48.0853 500.261,32.5853 513.5,19C 523.385,10.2248 534.719,4.39144 547.5,1.5 Z"/></g>
<g><path style="opacity:0.989" fill="#2d3033" d="M 1705.5,1.5 C 1763.5,1.5 1821.5,1.5 1879.5,1.5C 1879.5,27.5 1879.5,53.5 1879.5,79.5C 1823.83,79.3333 1768.17,79.5 1712.5,80C 1683.62,85.8886 1672.45,103.389 1679,132.5C 1682.38,143.547 1689.55,151.047 1700.5,155C 1704.74,156.413 1709.07,157.413 1713.5,158C 1742.83,158.333 1772.17,158.667 1801.5,159C 1877.23,170.08 1912.4,213.914 1907,290.5C 1898.04,345.791 1865.88,378.291 1810.5,388C 1744.52,389.472 1678.52,389.972 1612.5,389.5C 1612.5,363.5 1612.5,337.5 1612.5,311.5C 1673.5,311.667 1734.5,311.5 1795.5,311C 1818.38,309.126 1829.71,296.793 1829.5,274C 1831.27,255.461 1823.27,243.794 1805.5,239C 1802.21,238.118 1798.88,237.452 1795.5,237C 1766.17,236.667 1736.83,236.333 1707.5,236C 1671.55,232.944 1642.38,217.444 1620,189.5C 1599.63,156.547 1594.29,121.213 1604,83.5C 1616.71,43.1209 1643.55,17.2875 1684.5,6C 1691.62,4.41113 1698.62,2.91113 1705.5,1.5 Z"/></g>
<g><path style="opacity:0.993" fill="#38a2fd" d="M 969.5,2.5 C 970.5,2.5 971.5,2.5 972.5,2.5C 972.5,29.1667 972.5,55.8333 972.5,82.5C 971.5,82.5 970.5,82.5 969.5,82.5C 969.5,55.8333 969.5,29.1667 969.5,2.5 Z"/></g>
<g><path style="opacity:0.987" fill="#36a5fc" d="M 972.5,2.5 C 989.894,5.63152 1006.56,10.9649 1022.5,18.5C 1022.5,50.1667 1022.5,81.8333 1022.5,113.5C 1008.05,99.6062 991.38,89.2728 972.5,82.5C 972.5,55.8333 972.5,29.1667 972.5,2.5 Z"/></g>
<g><path style="opacity:0.987" fill="#1ed8f7" d="M 1411.5,2.5 C 1420.77,3.40053 1429.77,5.40053 1438.5,8.5C 1438.5,36.8333 1438.5,65.1667 1438.5,93.5C 1429.79,88.6404 1420.79,84.6404 1411.5,81.5C 1411.5,55.1667 1411.5,28.8333 1411.5,2.5 Z"/></g>
<g><path style="opacity:0.987" fill="#24ccf8" d="M 1337.5,4.5 C 1337.5,31.5 1337.5,58.5 1337.5,85.5C 1326.07,90.2937 1315.4,96.2937 1305.5,103.5C 1305.5,73.8333 1305.5,44.1667 1305.5,14.5C 1315.52,9.3854 1326.18,6.05206 1337.5,4.5 Z"/></g>
<g><path style="opacity:0.986" fill="#1cddf6" d="M 1438.5,8.5 C 1456.55,13.8585 1473.21,21.8585 1488.5,32.5C 1488.5,71.5 1488.5,110.5 1488.5,149.5C 1477.85,125.516 1461.19,106.849 1438.5,93.5C 1438.5,65.1667 1438.5,36.8333 1438.5,8.5 Z"/></g>
<g><path style="opacity:0.981" fill="#3e95fe" d="M 863.5,13.5 C 863.5,43.5 863.5,73.5 863.5,103.5C 862.833,104.833 861.833,105.833 860.5,106.5C 860.5,76.1667 860.5,45.8333 860.5,15.5C 861.29,14.5987 862.29,13.9321 863.5,13.5 Z"/></g>
<g><path style="opacity:0.984" fill="#26c8f9" d="M 1305.5,14.5 C 1305.5,44.1667 1305.5,73.8333 1305.5,103.5C 1297.17,112.5 1288.5,121.167 1279.5,129.5C 1279.5,95.5 1279.5,61.5 1279.5,27.5C 1287.3,21.599 1295.97,17.2657 1305.5,14.5 Z"/></g>
<g><path style="opacity:0.988" fill="#4090fe" d="M 860.5,15.5 C 860.5,45.8333 860.5,76.1667 860.5,106.5C 827.695,136.409 814.862,173.409 822,217.5C 827.631,244.111 840.464,266.444 860.5,284.5C 860.5,314.5 860.5,344.5 860.5,374.5C 805.355,350.517 768.522,309.851 750,252.5C 731.061,181.944 745.061,118.944 792,63.5C 811.433,42.5541 834.266,26.5541 860.5,15.5 Z"/></g>
<g><path style="opacity:0.99" fill="#33abfc" d="M 1022.5,18.5 C 1040.95,27.7171 1057.62,39.3838 1072.5,53.5C 1072.5,90.1667 1072.5,126.833 1072.5,163.5C 1055.5,147.167 1038.83,130.5 1022.5,113.5C 1022.5,81.8333 1022.5,50.1667 1022.5,18.5 Z"/></g>
<g><path style="opacity:0.985" fill="#28c4f9" d="M 1279.5,27.5 C 1279.5,61.5 1279.5,95.5 1279.5,129.5C 1263.17,146.5 1246.5,163.167 1229.5,179.5C 1229.5,142.833 1229.5,106.167 1229.5,69.5C 1243.49,52.1927 1260.15,38.1927 1279.5,27.5 Z"/></g>
<g><path style="opacity:0.988" fill="#1be1f5" d="M 1488.5,32.5 C 1544.83,71.6449 1573.83,125.812 1575.5,195C 1573.83,264.185 1544.83,318.351 1488.5,357.5C 1488.5,318.5 1488.5,279.5 1488.5,240.5C 1500.46,210.157 1500.46,179.823 1488.5,149.5C 1488.5,110.5 1488.5,71.5 1488.5,32.5 Z"/></g>
<g><path style="opacity:0.978" fill="#32affb" d="M 1072.5,53.5 C 1079.83,60.1667 1086.83,67.1667 1093.5,74.5C 1093.5,97.5 1093.5,120.5 1093.5,143.5C 1086.83,151.184 1079.83,157.851 1072.5,163.5C 1072.5,126.833 1072.5,90.1667 1072.5,53.5 Z"/></g>
<g><path style="opacity:0.993" fill="#2abffa" d="M 1229.5,69.5 C 1229.5,106.167 1229.5,142.833 1229.5,179.5C 1224.86,184.48 1220.19,189.48 1215.5,194.5C 1219.82,200.149 1224.48,205.483 1229.5,210.5C 1229.5,247.167 1229.5,283.833 1229.5,320.5C 1219.17,310.833 1209.17,300.833 1199.5,290.5C 1199.5,226.833 1199.5,163.167 1199.5,99.5C 1209.17,89.1667 1219.17,79.1667 1229.5,69.5 Z"/></g>
<g><path style="opacity:0.945" fill="#30b2fb" d="M 1093.5,74.5 C 1105.34,85.5066 1116.67,97.0066 1127.5,109C 1116.67,120.993 1105.34,132.493 1093.5,143.5C 1093.5,120.5 1093.5,97.5 1093.5,74.5 Z"/></g>
<g><path style="opacity:0.992" fill="#2cbcfa" d="M 1199.5,99.5 C 1199.5,163.167 1199.5,226.833 1199.5,290.5C 1192.17,283.833 1185.17,276.833 1178.5,269.5C 1178.5,219.833 1178.5,170.167 1178.5,120.5C 1185.17,113.167 1192.17,106.167 1199.5,99.5 Z"/></g>
<g><path style="opacity:0.986" fill="#2db8fa" d="M 1178.5,120.5 C 1178.5,170.167 1178.5,219.833 1178.5,269.5C 1162.86,253.527 1147.19,237.527 1131.5,221.5C 1131.5,203.5 1131.5,185.5 1131.5,167.5C 1146.83,151.5 1162.5,135.833 1178.5,120.5 Z"/></g>
<g><path style="opacity:0.94" fill="#2fb4fb" d="M 1131.5,167.5 C 1131.5,185.5 1131.5,203.5 1131.5,221.5C 1122.19,212.854 1113.19,203.854 1104.5,194.5C 1113.19,185.146 1122.19,176.146 1131.5,167.5 Z"/></g>
<g><path style="opacity:0.986" fill="#28c4f9" d="M 1229.5,210.5 C 1246.5,226.833 1263.17,243.5 1279.5,260.5C 1279.5,294.5 1279.5,328.5 1279.5,362.5C 1260.12,351.796 1243.46,337.796 1229.5,320.5C 1229.5,283.833 1229.5,247.167 1229.5,210.5 Z"/></g>
<g><path style="opacity:0.98" fill="#32affb" d="M 1093.5,242.5 C 1093.5,266.833 1093.5,291.167 1093.5,315.5C 1086.83,322.833 1079.83,329.833 1072.5,336.5C 1072.5,299.833 1072.5,263.167 1072.5,226.5C 1073.31,224.727 1074.65,224.227 1076.5,225C 1082.37,230.702 1088.04,236.535 1093.5,242.5 Z"/></g>
<g><path style="opacity:0.99" fill="#33abfc" d="M 1072.5,226.5 C 1072.5,263.167 1072.5,299.833 1072.5,336.5C 1057.62,350.616 1040.95,362.283 1022.5,371.5C 1022.5,339.833 1022.5,308.167 1022.5,276.5C 1038.83,259.5 1055.5,242.833 1072.5,226.5 Z"/></g>
<g><path style="opacity:0.986" fill="#1cddf6" d="M 1488.5,240.5 C 1488.5,279.5 1488.5,318.5 1488.5,357.5C 1473.2,368.147 1456.54,376.147 1438.5,381.5C 1438.5,353.167 1438.5,324.833 1438.5,296.5C 1461.21,283.127 1477.88,264.46 1488.5,240.5 Z"/></g>
<g><path style="opacity:0.948" fill="#30b2fb" d="M 1093.5,242.5 C 1106.01,254.173 1118.01,266.34 1129.5,279C 1118.01,291.66 1106.01,303.827 1093.5,315.5C 1093.5,291.167 1093.5,266.833 1093.5,242.5 Z"/></g>
<g><path style="opacity:0.986" fill="#26c8f9" d="M 1279.5,260.5 C 1287.83,269.5 1296.5,278.167 1305.5,286.5C 1305.5,316.5 1305.5,346.5 1305.5,376.5C 1296.19,372.849 1287.53,368.182 1279.5,362.5C 1279.5,328.5 1279.5,294.5 1279.5,260.5 Z"/></g>
<g><path style="opacity:0.987" fill="#36a5fc" d="M 1022.5,276.5 C 1022.5,308.167 1022.5,339.833 1022.5,371.5C 1006.57,379.033 989.899,384.367 972.5,387.5C 972.5,360.833 972.5,334.167 972.5,307.5C 991.38,300.727 1008.05,290.394 1022.5,276.5 Z"/></g>
<g><path style="opacity:0.985" fill="#3e95fe" d="M 860.5,284.5 C 862.027,284.427 863.027,285.094 863.5,286.5C 863.5,316.5 863.5,346.5 863.5,376.5C 862.29,376.068 861.29,375.401 860.5,374.5C 860.5,344.5 860.5,314.5 860.5,284.5 Z"/></g>
<g><path style="opacity:0.989" fill="#3c98fe" d="M 863.5,286.5 C 880.562,299.862 899.895,308.196 921.5,311.5C 921.5,337.833 921.5,364.167 921.5,390.5C 921.167,390.5 920.833,390.5 920.5,390.5C 900.987,388.393 881.987,383.726 863.5,376.5C 863.5,346.5 863.5,316.5 863.5,286.5 Z"/></g>
<g><path style="opacity:0.987" fill="#24ccf8" d="M 1305.5,286.5 C 1315.23,294.034 1325.89,300.034 1337.5,304.5C 1337.5,331.833 1337.5,359.167 1337.5,386.5C 1326.66,383.774 1315.99,380.441 1305.5,376.5C 1305.5,346.5 1305.5,316.5 1305.5,286.5 Z"/></g>
<g><path style="opacity:0.989" fill="#1ed8f7" d="M 1438.5,296.5 C 1438.5,324.833 1438.5,353.167 1438.5,381.5C 1429.66,384.468 1420.66,386.801 1411.5,388.5C 1411.5,361.833 1411.5,335.167 1411.5,308.5C 1420.81,305.348 1429.81,301.348 1438.5,296.5 Z"/></g>
<g><path style="opacity:0.99" fill="#22d1f7" d="M 1337.5,304.5 C 1353.55,310.758 1370.22,313.424 1387.5,312.5C 1387.5,338.5 1387.5,364.5 1387.5,390.5C 1379.17,390.5 1370.83,390.5 1362.5,390.5C 1354.3,389.183 1345.96,387.85 1337.5,386.5C 1337.5,359.167 1337.5,331.833 1337.5,304.5 Z"/></g>
<g><path style="opacity:0.988" fill="#38a2fd" d="M 972.5,307.5 C 972.5,334.167 972.5,360.833 972.5,387.5C 971.391,387.557 970.391,387.89 969.5,388.5C 969.5,361.833 969.5,335.167 969.5,308.5C 970.209,307.596 971.209,307.263 972.5,307.5 Z"/></g>
<g><path style="opacity:0.99" fill="#399ffd" d="M 969.5,308.5 C 969.5,335.167 969.5,361.833 969.5,388.5C 964.306,388.741 959.306,389.407 954.5,390.5C 943.5,390.5 932.5,390.5 921.5,390.5C 921.5,364.167 921.5,337.833 921.5,311.5C 937.682,313.34 953.682,312.34 969.5,308.5 Z"/></g>
<g><path style="opacity:0.989" fill="#20d6f7" d="M 1411.5,308.5 C 1411.5,335.167 1411.5,361.833 1411.5,388.5C 1406.31,388.741 1401.31,389.407 1396.5,390.5C 1393.5,390.5 1390.5,390.5 1387.5,390.5C 1387.5,364.5 1387.5,338.5 1387.5,312.5C 1395.56,311.554 1403.56,310.221 1411.5,308.5 Z"/></g>
<g><path style="opacity:0.973" fill="#1be1f5" d="M 2000.5,350.5 C 2000.5,354.5 2000.5,358.5 2000.5,362.5C 1996.91,377.092 1987.91,386.426 1973.5,390.5C 1968.5,390.5 1963.5,390.5 1958.5,390.5C 1938.19,383.214 1929.69,368.88 1933,347.5C 1940.05,328.213 1953.89,320.046 1974.5,323C 1988.53,327.196 1997.2,336.363 2000.5,350.5 Z"/></g>
</svg>
