<svg data-v-0dd9719b="" version="1.0" xmlns="http://www.w3.org/2000/svg" xmlns:xlink="http://www.w3.org/1999/xlink" width="100%" height="100%" viewBox="0 0 340.000000 250.000000" preserveAspectRatio="xMidYMid meet" color-interpolation-filters="sRGB" style="margin: auto;"> <rect data-v-0dd9719b="" x="0" y="0" width="100%" height="100%" fill="#fff" fill-opacity="1" class="background"></rect> <rect data-v-0dd9719b="" x="0" y="0" width="100%" height="100%" fill="url(#watermark)" fill-opacity="1" class="watermarklayer"></rect> <g data-v-0dd9719b="" fill="#5e2750" class="pmspacesvg" transform="translate(100.63499450683594,86.05499267578125)"><!----> <g><g transform="translate(0,0)" mask="url(#061f97a5-3595-4739-a187-7613c66a9767)"><g><rect data-gra="graph-name" fill="#5e2750" x="0" y="0" rx="29.795000076293945" ry="29.795000076293945" width="138.7300033569336" height="59.59000015258789"></rect></g> <g data-gra="path-name" fill-rule="" class="tp-name" transform="translate(20,10)"><g transform="scale(1)"><g><path d="M27.17-38.61L26.4-33 20.35-32.51 19.75-28 26.57-28 25.8-22.39 18.92-22.39 15.73 0.49 7.7 0.49 10.89-22.39 4.13-22.39 4.9-28 11.71-28 12.27-31.9 5.83-31.41 6.6-37.02 27.17-38.61ZM49.17-16.61L48.34-10.72 45.32-10.29 43.78 0.49 35.09 0.49 36.41-9.13 25.14-7.59 25.96-13.47 37.23-15.02 40.37-37.07 38.77-39.1 49.39-39.1 46.15-16.17 49.17-16.61ZM6.66-1.49L1.21-1.49 4.79-20.84 10.23-20.84 6.66-1.49ZM22.88-1.49L17.49-1.49 19.25-20.84 24.7-20.84 22.88-1.49ZM35.04-23.98L36.02-16.72 27.83-16.72 26.84-23.98 35.04-23.98ZM36.63-35.04L37.73-27.77 29.54-27.77 28.43-35.04 36.63-35.04ZM55.88-36.96L69.63-36.96 64.52-0.55 51.87-0.55 56.81-35.8 55.88-36.96ZM81.34-31.57L86.46-31.57 88.22-37.07 87.18-39.05 96.8-39.05 94.44-31.57 99.94-31.57 99.22-26.57 92.84-26.57 91.85-23.54 95.37-23.54 97.79-7.87 90.25-7.87 89.05-14.63 86.9-7.87 78.92-7.87 84.87-26.57 80.63-26.57 81.34-31.57ZM96.64-0.6L80.52-0.6 75.13-2.25 74.31-0.6 65.67-0.6 68.42-5.83 70.73-22.33 68.64-22.33 69.41-27.55 79.75-27.55 76.94-7.81 84.81-5.55 97.3-5.55 96.64-0.6ZM70.56-37.67L78.76-37.67 80.25-29.48 72.05-29.48 70.56-37.67ZM57.86-5.22L59.84-5.22 63.64-32.29 61.66-32.29 57.86-5.22Z" transform="translate(-1.2100000381469727, 39.099998474121094)"></path></g> <!----> <!----> <!----> <!----> <!----> <!----> <!----></g></g></g> <g data-gra="path-slogan" fill-rule="evenodd" class="tp-slogan" fill="#5e2750" transform="translate(25.000003814697266,66.59000015258789)"><rect fill="none" x="0" height="0" y="5.150000095367432" width="16.465002059936523"></rect> <rect fill="none" height="0" y="5.150000095367432" width="16.465002059936523" x="72.26500129699707"></rect> <g transform="translate(19.465002059936523,0)"><g transform="scale(1)"><path d="M 18 9.7 L 23.1 10.2 L 23 11.2 L 16.7 10.6 L 17.5 2.1 L 23.8 2.7 L 23.7 3.7 L 18.6 3.2 L 18.4 5.9 L 23 6.3 L 22.9 7.3 L 18.3 6.9 L 18 9.7 Z M 10.8 4.8 L 9.2 5.6 L 8.3 8.6 L 7.2 8.3 L 9.5 0 L 10.6 0.3 L 9.5 4.3 L 14.7 1.4 L 16.2 1.9 L 11.8 4.2 L 14 10.2 L 12.5 9.8 L 10.8 4.8 Z M 42.2 8.3 L 40.7 6.2 L 37.3 7.2 L 37.2 9.8 L 36.1 10.1 L 36.8 1 L 38 0.6 L 43.4 8 L 42.2 8.3 Z M 29.9 10.9 L 26.4 11.3 L 25.6 2.7 L 29.1 2.4 A 3.7 3.7 0 0 1 33.1 6.2 A 3.8 3.8 0 0 1 29.9 10.9 Z M 29 3.3 L 26.9 3.6 L 27.5 10.2 L 29.7 10 A 2.8 2.8 0 0 0 31.9 6.4 A 2.8 2.8 0 0 0 29 3.3 Z M 49.4 1.3 L 49.8 2.1 L 44.3 4.8 L 44 4 L 49.4 1.3 Z M 5.8 4 L 5.4 4.8 L 0 2.1 L 0.4 1.3 L 5.8 4 Z M 37.6 2 L 37.4 6.1 L 40 5.3 L 37.7 2 L 37.6 2 Z"></path></g></g></g></g></g><defs v-gra="od"></defs><mask id="061f97a5-3595-4739-a187-7613c66a9767"><g fill="white"><rect data-gra="graph-name" x="0" y="0" rx="29.795000076293945" ry="29.795000076293945" width="138.7300033569336" height="59.59000015258789"></rect></g> <g data-gra="path-name" fill-rule="" class="tp-name" transform="translate(20,10)" fill="black"><g transform="scale(1)"><g><path d="M27.17-38.61L26.4-33 20.35-32.51 19.75-28 26.57-28 25.8-22.39 18.92-22.39 15.73 0.49 7.7 0.49 10.89-22.39 4.13-22.39 4.9-28 11.71-28 12.27-31.9 5.83-31.41 6.6-37.02 27.17-38.61ZM49.17-16.61L48.34-10.72 45.32-10.29 43.78 0.49 35.09 0.49 36.41-9.13 25.14-7.59 25.96-13.47 37.23-15.02 40.37-37.07 38.77-39.1 49.39-39.1 46.15-16.17 49.17-16.61ZM6.66-1.49L1.21-1.49 4.79-20.84 10.23-20.84 6.66-1.49ZM22.88-1.49L17.49-1.49 19.25-20.84 24.7-20.84 22.88-1.49ZM35.04-23.98L36.02-16.72 27.83-16.72 26.84-23.98 35.04-23.98ZM36.63-35.04L37.73-27.77 29.54-27.77 28.43-35.04 36.63-35.04ZM55.88-36.96L69.63-36.96 64.52-0.55 51.87-0.55 56.81-35.8 55.88-36.96ZM81.34-31.57L86.46-31.57 88.22-37.07 87.18-39.05 96.8-39.05 94.44-31.57 99.94-31.57 99.22-26.57 92.84-26.57 91.85-23.54 95.37-23.54 97.79-7.87 90.25-7.87 89.05-14.63 86.9-7.87 78.92-7.87 84.87-26.57 80.63-26.57 81.34-31.57ZM96.64-0.6L80.52-0.6 75.13-2.25 74.31-0.6 65.67-0.6 68.42-5.83 70.73-22.33 68.64-22.33 69.41-27.55 79.75-27.55 76.94-7.81 84.81-5.55 97.3-5.55 96.64-0.6ZM70.56-37.67L78.76-37.67 80.25-29.48 72.05-29.48 70.56-37.67ZM57.86-5.22L59.84-5.22 63.64-32.29 61.66-32.29 57.86-5.22Z" transform="translate(-1.2100000381469727, 39.099998474121094)"></path></g>       </g></g></mask></svg>